<mxfile host="app.diagrams.net" modified="2024-02-11T21:02:47.781Z" agent="Mozilla/5.0 (Windows NT 10.0; Win64; x64) AppleWebKit/537.36 (KHTML, like Gecko) Chrome/121.0.0.0 Safari/537.36" etag="E5CxXoi2womcpl3Tsz7d" version="23.1.2" type="github">
  <diagram name="Page-1" id="IEJkf_hCV8dXlVngM3ra">
    <mxGraphModel dx="1195" dy="682" grid="1" gridSize="10" guides="1" tooltips="1" connect="1" arrows="1" fold="1" page="1" pageScale="1" pageWidth="1100" pageHeight="850" math="0" shadow="0">
      <root>
        <mxCell id="0" />
        <mxCell id="1" parent="0" />
        <mxCell id="qDmLnBeWTp0_LzGQM5Zg-1" value="" style="rounded=1;whiteSpace=wrap;html=1;fillColor=#dae8fc;strokeColor=#6c8ebf;" vertex="1" parent="1">
          <mxGeometry x="838" y="90" width="230" height="140" as="geometry" />
        </mxCell>
        <mxCell id="qDmLnBeWTp0_LzGQM5Zg-14" style="edgeStyle=orthogonalEdgeStyle;rounded=0;orthogonalLoop=1;jettySize=auto;html=1;exitX=0.5;exitY=0;exitDx=0;exitDy=0;entryX=0.5;entryY=1;entryDx=0;entryDy=0;" edge="1" parent="1" source="qDmLnBeWTp0_LzGQM5Zg-2" target="qDmLnBeWTp0_LzGQM5Zg-10">
          <mxGeometry relative="1" as="geometry" />
        </mxCell>
        <mxCell id="qDmLnBeWTp0_LzGQM5Zg-2" value="&lt;font style=&quot;font-size: 15px;&quot; face=&quot;Times New Roman&quot;&gt;act&lt;/font&gt;" style="rounded=1;whiteSpace=wrap;html=1;fillColor=#fff2cc;strokeColor=#d6b656;" vertex="1" parent="1">
          <mxGeometry x="938" y="180" width="30" height="20" as="geometry" />
        </mxCell>
        <mxCell id="qDmLnBeWTp0_LzGQM5Zg-4" value="&lt;font face=&quot;Times New Roman&quot;&gt;&lt;span style=&quot;font-size: 15px;&quot;&gt;+&lt;/span&gt;&lt;/font&gt;" style="rounded=1;whiteSpace=wrap;html=1;fillColor=#f8cecc;strokeColor=#b85450;" vertex="1" parent="1">
          <mxGeometry x="943" y="100" width="20" height="20" as="geometry" />
        </mxCell>
        <mxCell id="qDmLnBeWTp0_LzGQM5Zg-9" style="edgeStyle=orthogonalEdgeStyle;rounded=0;orthogonalLoop=1;jettySize=auto;html=1;exitX=0.5;exitY=0;exitDx=0;exitDy=0;" edge="1" parent="1" source="qDmLnBeWTp0_LzGQM5Zg-5" target="qDmLnBeWTp0_LzGQM5Zg-3">
          <mxGeometry relative="1" as="geometry" />
        </mxCell>
        <mxCell id="qDmLnBeWTp0_LzGQM5Zg-5" value="α" style="rounded=1;whiteSpace=wrap;html=1;fillColor=#fff2cc;strokeColor=#d6b656;" vertex="1" parent="1">
          <mxGeometry x="862" y="180" width="20" height="20" as="geometry" />
        </mxCell>
        <mxCell id="qDmLnBeWTp0_LzGQM5Zg-12" style="edgeStyle=orthogonalEdgeStyle;rounded=0;orthogonalLoop=1;jettySize=auto;html=1;exitX=0.5;exitY=0;exitDx=0;exitDy=0;entryX=0.027;entryY=0.563;entryDx=0;entryDy=0;entryPerimeter=0;" edge="1" parent="1" source="qDmLnBeWTp0_LzGQM5Zg-6" target="qDmLnBeWTp0_LzGQM5Zg-10">
          <mxGeometry relative="1" as="geometry">
            <mxPoint x="960" y="150" as="targetPoint" />
          </mxGeometry>
        </mxCell>
        <mxCell id="qDmLnBeWTp0_LzGQM5Zg-6" value="α" style="rounded=1;whiteSpace=wrap;html=1;fillColor=#fff2cc;strokeColor=#d6b656;" vertex="1" parent="1">
          <mxGeometry x="901" y="180" width="20" height="20" as="geometry" />
        </mxCell>
        <mxCell id="qDmLnBeWTp0_LzGQM5Zg-7" value="&lt;font style=&quot;font-size: 15px;&quot; face=&quot;Times New Roman&quot;&gt;act&lt;/font&gt;" style="rounded=1;whiteSpace=wrap;html=1;fillColor=#f8cecc;strokeColor=#b85450;" vertex="1" parent="1">
          <mxGeometry x="1008" y="120" width="30" height="20" as="geometry" />
        </mxCell>
        <mxCell id="qDmLnBeWTp0_LzGQM5Zg-16" style="edgeStyle=orthogonalEdgeStyle;rounded=0;orthogonalLoop=1;jettySize=auto;html=1;exitX=0.5;exitY=0;exitDx=0;exitDy=0;entryX=0;entryY=0.5;entryDx=0;entryDy=0;" edge="1" parent="1" source="qDmLnBeWTp0_LzGQM5Zg-8" target="qDmLnBeWTp0_LzGQM5Zg-15">
          <mxGeometry relative="1" as="geometry">
            <Array as="points">
              <mxPoint x="992" y="170" />
            </Array>
          </mxGeometry>
        </mxCell>
        <mxCell id="qDmLnBeWTp0_LzGQM5Zg-8" value="α" style="rounded=1;whiteSpace=wrap;html=1;fillColor=#fff2cc;strokeColor=#d6b656;" vertex="1" parent="1">
          <mxGeometry x="982" y="180" width="20" height="20" as="geometry" />
        </mxCell>
        <mxCell id="qDmLnBeWTp0_LzGQM5Zg-13" style="edgeStyle=orthogonalEdgeStyle;rounded=0;orthogonalLoop=1;jettySize=auto;html=1;exitX=0.5;exitY=0;exitDx=0;exitDy=0;" edge="1" parent="1" source="qDmLnBeWTp0_LzGQM5Zg-10" target="qDmLnBeWTp0_LzGQM5Zg-4">
          <mxGeometry relative="1" as="geometry" />
        </mxCell>
        <mxCell id="qDmLnBeWTp0_LzGQM5Zg-10" value="&lt;font face=&quot;Times New Roman&quot;&gt;&lt;span style=&quot;font-size: 15px;&quot;&gt;x&lt;/span&gt;&lt;/font&gt;" style="rounded=1;whiteSpace=wrap;html=1;fillColor=#f8cecc;strokeColor=#b85450;" vertex="1" parent="1">
          <mxGeometry x="943" y="140" width="20" height="20" as="geometry" />
        </mxCell>
        <mxCell id="qDmLnBeWTp0_LzGQM5Zg-30" style="edgeStyle=orthogonalEdgeStyle;rounded=0;orthogonalLoop=1;jettySize=auto;html=1;" edge="1" parent="1" source="qDmLnBeWTp0_LzGQM5Zg-15">
          <mxGeometry relative="1" as="geometry">
            <mxPoint x="1088" y="200" as="targetPoint" />
            <Array as="points">
              <mxPoint x="1023" y="200" />
            </Array>
          </mxGeometry>
        </mxCell>
        <mxCell id="qDmLnBeWTp0_LzGQM5Zg-15" value="&lt;font face=&quot;Times New Roman&quot;&gt;&lt;span style=&quot;font-size: 15px;&quot;&gt;x&lt;/span&gt;&lt;/font&gt;" style="rounded=1;whiteSpace=wrap;html=1;fillColor=#f8cecc;strokeColor=#b85450;" vertex="1" parent="1">
          <mxGeometry x="1013" y="160" width="20" height="20" as="geometry" />
        </mxCell>
        <mxCell id="qDmLnBeWTp0_LzGQM5Zg-19" value="" style="endArrow=none;html=1;rounded=0;exitX=0;exitY=1;exitDx=0;exitDy=0;" edge="1" parent="1" source="qDmLnBeWTp0_LzGQM5Zg-37">
          <mxGeometry width="50" height="50" relative="1" as="geometry">
            <mxPoint x="798" y="210" as="sourcePoint" />
            <mxPoint x="984" y="210" as="targetPoint" />
          </mxGeometry>
        </mxCell>
        <mxCell id="qDmLnBeWTp0_LzGQM5Zg-21" value="" style="endArrow=none;html=1;rounded=0;entryX=0.5;entryY=1;entryDx=0;entryDy=0;" edge="1" parent="1" target="qDmLnBeWTp0_LzGQM5Zg-8">
          <mxGeometry width="50" height="50" relative="1" as="geometry">
            <mxPoint x="984" y="210" as="sourcePoint" />
            <mxPoint x="984" y="200" as="targetPoint" />
            <Array as="points">
              <mxPoint x="992" y="210" />
            </Array>
          </mxGeometry>
        </mxCell>
        <mxCell id="qDmLnBeWTp0_LzGQM5Zg-23" value="" style="endArrow=none;html=1;rounded=0;" edge="1" parent="1">
          <mxGeometry width="50" height="50" relative="1" as="geometry">
            <mxPoint x="953" y="210" as="sourcePoint" />
            <mxPoint x="953" y="200" as="targetPoint" />
          </mxGeometry>
        </mxCell>
        <mxCell id="qDmLnBeWTp0_LzGQM5Zg-24" value="" style="endArrow=none;html=1;rounded=0;" edge="1" parent="1">
          <mxGeometry width="50" height="50" relative="1" as="geometry">
            <mxPoint x="911" y="210" as="sourcePoint" />
            <mxPoint x="911" y="200" as="targetPoint" />
          </mxGeometry>
        </mxCell>
        <mxCell id="qDmLnBeWTp0_LzGQM5Zg-25" value="" style="endArrow=none;html=1;rounded=0;" edge="1" parent="1">
          <mxGeometry width="50" height="50" relative="1" as="geometry">
            <mxPoint x="872" y="210" as="sourcePoint" />
            <mxPoint x="872" y="200" as="targetPoint" />
          </mxGeometry>
        </mxCell>
        <mxCell id="qDmLnBeWTp0_LzGQM5Zg-26" value="" style="endArrow=none;html=1;rounded=0;" edge="1" parent="1">
          <mxGeometry width="50" height="50" relative="1" as="geometry">
            <mxPoint x="816" y="110" as="sourcePoint" />
            <mxPoint x="862" y="110" as="targetPoint" />
          </mxGeometry>
        </mxCell>
        <mxCell id="qDmLnBeWTp0_LzGQM5Zg-27" value="" style="endArrow=none;html=1;rounded=0;" edge="1" parent="1">
          <mxGeometry width="50" height="50" relative="1" as="geometry">
            <mxPoint x="863" y="250" as="sourcePoint" />
            <mxPoint x="863" y="210" as="targetPoint" />
          </mxGeometry>
        </mxCell>
        <mxCell id="qDmLnBeWTp0_LzGQM5Zg-28" value="" style="endArrow=none;html=1;rounded=0;entryX=0;entryY=0.5;entryDx=0;entryDy=0;" edge="1" parent="1" target="qDmLnBeWTp0_LzGQM5Zg-4">
          <mxGeometry width="50" height="50" relative="1" as="geometry">
            <mxPoint x="864" y="110" as="sourcePoint" />
            <mxPoint x="914" y="60" as="targetPoint" />
          </mxGeometry>
        </mxCell>
        <mxCell id="qDmLnBeWTp0_LzGQM5Zg-29" value="" style="endArrow=classic;html=1;rounded=0;exitX=1;exitY=0.5;exitDx=0;exitDy=0;" edge="1" parent="1" source="qDmLnBeWTp0_LzGQM5Zg-4">
          <mxGeometry width="50" height="50" relative="1" as="geometry">
            <mxPoint x="1108" y="130" as="sourcePoint" />
            <mxPoint x="1088" y="110" as="targetPoint" />
          </mxGeometry>
        </mxCell>
        <mxCell id="qDmLnBeWTp0_LzGQM5Zg-31" value="" style="endArrow=classic;html=1;rounded=0;" edge="1" parent="1">
          <mxGeometry width="50" height="50" relative="1" as="geometry">
            <mxPoint x="1048" y="200" as="sourcePoint" />
            <mxPoint x="1048" y="70" as="targetPoint" />
          </mxGeometry>
        </mxCell>
        <mxCell id="qDmLnBeWTp0_LzGQM5Zg-33" value="" style="endArrow=none;html=1;rounded=0;" edge="1" parent="1">
          <mxGeometry width="50" height="50" relative="1" as="geometry">
            <mxPoint x="1023" y="120" as="sourcePoint" />
            <mxPoint x="1023" y="110" as="targetPoint" />
          </mxGeometry>
        </mxCell>
        <mxCell id="qDmLnBeWTp0_LzGQM5Zg-34" value="" style="endArrow=none;html=1;rounded=0;exitX=0.5;exitY=0;exitDx=0;exitDy=0;" edge="1" parent="1" source="qDmLnBeWTp0_LzGQM5Zg-15">
          <mxGeometry width="50" height="50" relative="1" as="geometry">
            <mxPoint x="1023" y="150" as="sourcePoint" />
            <mxPoint x="1023" y="140" as="targetPoint" />
          </mxGeometry>
        </mxCell>
        <mxCell id="qDmLnBeWTp0_LzGQM5Zg-36" value="&lt;font style=&quot;font-size: 15px;&quot; face=&quot;Times New Roman&quot;&gt;x&lt;sub&gt;t&lt;/sub&gt;&lt;/font&gt;" style="text;html=1;strokeColor=none;fillColor=none;align=center;verticalAlign=middle;whiteSpace=wrap;rounded=0;" vertex="1" parent="1">
          <mxGeometry x="841" y="230" width="26" height="20" as="geometry" />
        </mxCell>
        <mxCell id="qDmLnBeWTp0_LzGQM5Zg-37" value="&lt;font style=&quot;font-size: 15px;&quot; face=&quot;Times New Roman&quot;&gt;h&lt;sub&gt;t-1&lt;/sub&gt;&lt;/font&gt;" style="text;html=1;strokeColor=none;fillColor=none;align=center;verticalAlign=middle;whiteSpace=wrap;rounded=0;" vertex="1" parent="1">
          <mxGeometry x="810" y="190" width="26" height="20" as="geometry" />
        </mxCell>
        <mxCell id="qDmLnBeWTp0_LzGQM5Zg-38" value="&lt;font style=&quot;&quot; face=&quot;Times New Roman&quot;&gt;&lt;span style=&quot;font-size: 15px;&quot;&gt;c&lt;sub&gt;t-1&lt;/sub&gt;&lt;/span&gt;&lt;/font&gt;" style="text;html=1;strokeColor=none;fillColor=none;align=center;verticalAlign=middle;whiteSpace=wrap;rounded=0;" vertex="1" parent="1">
          <mxGeometry x="811" y="90" width="30" height="20" as="geometry" />
        </mxCell>
        <mxCell id="qDmLnBeWTp0_LzGQM5Zg-39" value="&lt;font style=&quot;font-size: 15px;&quot; face=&quot;Times New Roman&quot;&gt;f&lt;sub&gt;t&lt;/sub&gt;&lt;/font&gt;" style="text;html=1;strokeColor=none;fillColor=none;align=center;verticalAlign=middle;whiteSpace=wrap;rounded=0;" vertex="1" parent="1">
          <mxGeometry x="869" y="150" width="26" height="20" as="geometry" />
        </mxCell>
        <mxCell id="qDmLnBeWTp0_LzGQM5Zg-40" value="&lt;font style=&quot;font-size: 15px;&quot; face=&quot;Times New Roman&quot;&gt;i&lt;sub&gt;t&lt;/sub&gt;&lt;/font&gt;" style="text;html=1;strokeColor=none;fillColor=none;align=center;verticalAlign=middle;whiteSpace=wrap;rounded=0;" vertex="1" parent="1">
          <mxGeometry x="905" y="150" width="26" height="20" as="geometry" />
        </mxCell>
        <mxCell id="qDmLnBeWTp0_LzGQM5Zg-41" value="&lt;font style=&quot;font-size: 15px;&quot; face=&quot;Times New Roman&quot;&gt;c&lt;sub&gt;t&lt;/sub&gt;&lt;/font&gt;" style="text;html=1;strokeColor=none;fillColor=none;align=center;verticalAlign=middle;whiteSpace=wrap;rounded=0;" vertex="1" parent="1">
          <mxGeometry x="952" y="160" width="26" height="20" as="geometry" />
        </mxCell>
        <mxCell id="qDmLnBeWTp0_LzGQM5Zg-42" value="&lt;font style=&quot;font-size: 15px;&quot; face=&quot;Times New Roman&quot;&gt;o&lt;sub&gt;t&lt;/sub&gt;&lt;/font&gt;" style="text;html=1;strokeColor=none;fillColor=none;align=center;verticalAlign=middle;whiteSpace=wrap;rounded=0;" vertex="1" parent="1">
          <mxGeometry x="982" y="150" width="26" height="20" as="geometry" />
        </mxCell>
        <mxCell id="qDmLnBeWTp0_LzGQM5Zg-43" value="&lt;font style=&quot;font-size: 15px;&quot; face=&quot;Times New Roman&quot;&gt;h&lt;sub&gt;t&lt;/sub&gt;&lt;/font&gt;" style="text;html=1;strokeColor=none;fillColor=none;align=center;verticalAlign=middle;whiteSpace=wrap;rounded=0;" vertex="1" parent="1">
          <mxGeometry x="1028" y="70" width="26" height="20" as="geometry" />
        </mxCell>
        <mxCell id="qDmLnBeWTp0_LzGQM5Zg-44" value="&lt;font style=&quot;&quot; face=&quot;Times New Roman&quot;&gt;&lt;span style=&quot;font-size: 15px;&quot;&gt;c&lt;sub&gt;t&lt;/sub&gt;&lt;/span&gt;&lt;/font&gt;" style="text;html=1;strokeColor=none;fillColor=none;align=center;verticalAlign=middle;whiteSpace=wrap;rounded=0;" vertex="1" parent="1">
          <mxGeometry x="1068" y="110" width="26" height="20" as="geometry" />
        </mxCell>
        <mxCell id="qDmLnBeWTp0_LzGQM5Zg-45" value="&lt;font style=&quot;font-size: 15px;&quot; face=&quot;Times New Roman&quot;&gt;h&lt;sub&gt;t&lt;/sub&gt;&lt;/font&gt;" style="text;html=1;strokeColor=none;fillColor=none;align=center;verticalAlign=middle;whiteSpace=wrap;rounded=0;" vertex="1" parent="1">
          <mxGeometry x="1068" y="180" width="26" height="20" as="geometry" />
        </mxCell>
        <mxCell id="qDmLnBeWTp0_LzGQM5Zg-84" value="" style="rounded=1;whiteSpace=wrap;html=1;fillColor=#dae8fc;strokeColor=#6c8ebf;" vertex="1" parent="1">
          <mxGeometry x="560" y="90" width="190" height="140" as="geometry" />
        </mxCell>
        <mxCell id="qDmLnBeWTp0_LzGQM5Zg-85" value="&lt;font style=&quot;font-size: 15px;&quot; face=&quot;Times New Roman&quot;&gt;act&lt;/font&gt;" style="rounded=1;whiteSpace=wrap;html=1;fillColor=#fff2cc;strokeColor=#d6b656;" vertex="1" parent="1">
          <mxGeometry x="703" y="180" width="30" height="20" as="geometry" />
        </mxCell>
        <mxCell id="qDmLnBeWTp0_LzGQM5Zg-95" style="edgeStyle=orthogonalEdgeStyle;rounded=0;orthogonalLoop=1;jettySize=auto;html=1;exitX=0.5;exitY=0;exitDx=0;exitDy=0;entryX=1;entryY=0.5;entryDx=0;entryDy=0;" edge="1" parent="1" source="qDmLnBeWTp0_LzGQM5Zg-86" target="qDmLnBeWTp0_LzGQM5Zg-88">
          <mxGeometry relative="1" as="geometry">
            <Array as="points">
              <mxPoint x="633" y="150" />
            </Array>
          </mxGeometry>
        </mxCell>
        <mxCell id="qDmLnBeWTp0_LzGQM5Zg-86" value="α" style="rounded=1;whiteSpace=wrap;html=1;fillColor=#fff2cc;strokeColor=#d6b656;" vertex="1" parent="1">
          <mxGeometry x="623" y="180" width="20" height="20" as="geometry" />
        </mxCell>
        <mxCell id="qDmLnBeWTp0_LzGQM5Zg-93" style="edgeStyle=orthogonalEdgeStyle;rounded=0;orthogonalLoop=1;jettySize=auto;html=1;exitX=0.5;exitY=0;exitDx=0;exitDy=0;entryX=0;entryY=0.5;entryDx=0;entryDy=0;" edge="1" parent="1" source="qDmLnBeWTp0_LzGQM5Zg-87" target="qDmLnBeWTp0_LzGQM5Zg-91">
          <mxGeometry relative="1" as="geometry">
            <Array as="points">
              <mxPoint x="673" y="170" />
              <mxPoint x="690" y="170" />
              <mxPoint x="690" y="150" />
            </Array>
          </mxGeometry>
        </mxCell>
        <mxCell id="qDmLnBeWTp0_LzGQM5Zg-87" value="α" style="rounded=1;whiteSpace=wrap;html=1;fillColor=#fff2cc;strokeColor=#d6b656;" vertex="1" parent="1">
          <mxGeometry x="663" y="180" width="20" height="20" as="geometry" />
        </mxCell>
        <mxCell id="qDmLnBeWTp0_LzGQM5Zg-88" value="&lt;font face=&quot;Times New Roman&quot;&gt;&lt;span style=&quot;font-size: 15px;&quot;&gt;x&lt;/span&gt;&lt;/font&gt;" style="rounded=1;whiteSpace=wrap;html=1;fillColor=#f8cecc;strokeColor=#b85450;" vertex="1" parent="1">
          <mxGeometry x="590" y="140" width="20" height="20" as="geometry" />
        </mxCell>
        <mxCell id="qDmLnBeWTp0_LzGQM5Zg-89" value="&lt;font face=&quot;Times New Roman&quot;&gt;&lt;span style=&quot;font-size: 15px;&quot;&gt;x&lt;/span&gt;&lt;/font&gt;" style="rounded=1;whiteSpace=wrap;html=1;fillColor=#f8cecc;strokeColor=#b85450;" vertex="1" parent="1">
          <mxGeometry x="663" y="100" width="20" height="20" as="geometry" />
        </mxCell>
        <mxCell id="qDmLnBeWTp0_LzGQM5Zg-94" style="edgeStyle=orthogonalEdgeStyle;rounded=0;orthogonalLoop=1;jettySize=auto;html=1;exitX=0.5;exitY=0;exitDx=0;exitDy=0;entryX=0.5;entryY=1;entryDx=0;entryDy=0;" edge="1" parent="1" source="qDmLnBeWTp0_LzGQM5Zg-90" target="qDmLnBeWTp0_LzGQM5Zg-89">
          <mxGeometry relative="1" as="geometry" />
        </mxCell>
        <mxCell id="qDmLnBeWTp0_LzGQM5Zg-90" value="&lt;font face=&quot;Times New Roman&quot;&gt;&lt;span style=&quot;font-size: 15px;&quot;&gt;1-&lt;/span&gt;&lt;/font&gt;" style="rounded=1;whiteSpace=wrap;html=1;fillColor=#f8cecc;strokeColor=#b85450;" vertex="1" parent="1">
          <mxGeometry x="663" y="140" width="20" height="20" as="geometry" />
        </mxCell>
        <mxCell id="qDmLnBeWTp0_LzGQM5Zg-101" style="edgeStyle=orthogonalEdgeStyle;rounded=0;orthogonalLoop=1;jettySize=auto;html=1;exitX=0.5;exitY=0;exitDx=0;exitDy=0;entryX=0.5;entryY=1;entryDx=0;entryDy=0;" edge="1" parent="1" source="qDmLnBeWTp0_LzGQM5Zg-91" target="qDmLnBeWTp0_LzGQM5Zg-92">
          <mxGeometry relative="1" as="geometry" />
        </mxCell>
        <mxCell id="qDmLnBeWTp0_LzGQM5Zg-91" value="" style="rounded=1;whiteSpace=wrap;html=1;fillColor=#f8cecc;strokeColor=#b85450;" vertex="1" parent="1">
          <mxGeometry x="708" y="140" width="20" height="20" as="geometry" />
        </mxCell>
        <mxCell id="qDmLnBeWTp0_LzGQM5Zg-102" style="edgeStyle=orthogonalEdgeStyle;rounded=0;orthogonalLoop=1;jettySize=auto;html=1;exitX=1;exitY=0.5;exitDx=0;exitDy=0;" edge="1" parent="1" source="qDmLnBeWTp0_LzGQM5Zg-92">
          <mxGeometry relative="1" as="geometry">
            <mxPoint x="780" y="110" as="targetPoint" />
          </mxGeometry>
        </mxCell>
        <mxCell id="qDmLnBeWTp0_LzGQM5Zg-92" value="&lt;font face=&quot;Times New Roman&quot;&gt;&lt;span style=&quot;font-size: 15px;&quot;&gt;+&lt;/span&gt;&lt;/font&gt;" style="rounded=1;whiteSpace=wrap;html=1;fillColor=#f8cecc;strokeColor=#b85450;" vertex="1" parent="1">
          <mxGeometry x="708" y="100" width="20" height="20" as="geometry" />
        </mxCell>
        <mxCell id="qDmLnBeWTp0_LzGQM5Zg-96" value="" style="endArrow=none;html=1;rounded=0;entryX=0;entryY=0.5;entryDx=0;entryDy=0;" edge="1" parent="1" target="qDmLnBeWTp0_LzGQM5Zg-89">
          <mxGeometry width="50" height="50" relative="1" as="geometry">
            <mxPoint x="540" y="110" as="sourcePoint" />
            <mxPoint x="470" y="60" as="targetPoint" />
          </mxGeometry>
        </mxCell>
        <mxCell id="qDmLnBeWTp0_LzGQM5Zg-97" value="" style="endArrow=none;html=1;rounded=0;exitX=0.5;exitY=0;exitDx=0;exitDy=0;" edge="1" parent="1" source="qDmLnBeWTp0_LzGQM5Zg-88">
          <mxGeometry width="50" height="50" relative="1" as="geometry">
            <mxPoint x="602.8" y="140" as="sourcePoint" />
            <mxPoint x="600" y="110" as="targetPoint" />
          </mxGeometry>
        </mxCell>
        <mxCell id="qDmLnBeWTp0_LzGQM5Zg-98" value="" style="endArrow=none;html=1;rounded=0;" edge="1" parent="1">
          <mxGeometry width="50" height="50" relative="1" as="geometry">
            <mxPoint x="672.8" y="180" as="sourcePoint" />
            <mxPoint x="672.8" y="160" as="targetPoint" />
          </mxGeometry>
        </mxCell>
        <mxCell id="qDmLnBeWTp0_LzGQM5Zg-100" value="" style="endArrow=none;html=1;rounded=0;" edge="1" parent="1">
          <mxGeometry width="50" height="50" relative="1" as="geometry">
            <mxPoint x="717.8" y="180" as="sourcePoint" />
            <mxPoint x="717.8" y="160" as="targetPoint" />
          </mxGeometry>
        </mxCell>
        <mxCell id="qDmLnBeWTp0_LzGQM5Zg-103" value="" style="endArrow=none;html=1;rounded=0;" edge="1" parent="1">
          <mxGeometry width="50" height="50" relative="1" as="geometry">
            <mxPoint x="580" y="250" as="sourcePoint" />
            <mxPoint x="580" y="210" as="targetPoint" />
          </mxGeometry>
        </mxCell>
        <mxCell id="qDmLnBeWTp0_LzGQM5Zg-104" value="" style="endArrow=none;html=1;rounded=0;entryX=0.5;entryY=1;entryDx=0;entryDy=0;" edge="1" parent="1" target="qDmLnBeWTp0_LzGQM5Zg-87">
          <mxGeometry width="50" height="50" relative="1" as="geometry">
            <mxPoint x="580" y="110" as="sourcePoint" />
            <mxPoint x="630" y="210" as="targetPoint" />
            <Array as="points">
              <mxPoint x="580" y="210" />
              <mxPoint x="673" y="210" />
            </Array>
          </mxGeometry>
        </mxCell>
        <mxCell id="qDmLnBeWTp0_LzGQM5Zg-106" value="" style="endArrow=none;html=1;rounded=0;" edge="1" parent="1">
          <mxGeometry width="50" height="50" relative="1" as="geometry">
            <mxPoint x="633" y="210" as="sourcePoint" />
            <mxPoint x="632.86" y="200" as="targetPoint" />
          </mxGeometry>
        </mxCell>
        <mxCell id="qDmLnBeWTp0_LzGQM5Zg-107" value="" style="endArrow=none;html=1;rounded=0;" edge="1" parent="1">
          <mxGeometry width="50" height="50" relative="1" as="geometry">
            <mxPoint x="580" y="220" as="sourcePoint" />
            <mxPoint x="599.86" y="160" as="targetPoint" />
            <Array as="points">
              <mxPoint x="600" y="220" />
            </Array>
          </mxGeometry>
        </mxCell>
        <mxCell id="qDmLnBeWTp0_LzGQM5Zg-108" value="" style="endArrow=none;html=1;rounded=0;exitX=0.5;exitY=1;exitDx=0;exitDy=0;" edge="1" parent="1" source="qDmLnBeWTp0_LzGQM5Zg-85">
          <mxGeometry width="50" height="50" relative="1" as="geometry">
            <mxPoint x="630" y="220" as="sourcePoint" />
            <mxPoint x="600" y="220" as="targetPoint" />
            <Array as="points">
              <mxPoint x="718" y="220" />
            </Array>
          </mxGeometry>
        </mxCell>
        <mxCell id="qDmLnBeWTp0_LzGQM5Zg-109" value="&lt;font style=&quot;font-size: 15px;&quot; face=&quot;Times New Roman&quot;&gt;h&lt;sub&gt;t-1&lt;/sub&gt;&lt;/font&gt;" style="text;html=1;strokeColor=none;fillColor=none;align=center;verticalAlign=middle;whiteSpace=wrap;rounded=0;" vertex="1" parent="1">
          <mxGeometry x="534" y="90" width="26" height="20" as="geometry" />
        </mxCell>
        <mxCell id="qDmLnBeWTp0_LzGQM5Zg-110" value="&lt;font style=&quot;font-size: 15px;&quot; face=&quot;Times New Roman&quot;&gt;x&lt;sub&gt;t&lt;/sub&gt;&lt;/font&gt;" style="text;html=1;strokeColor=none;fillColor=none;align=center;verticalAlign=middle;whiteSpace=wrap;rounded=0;" vertex="1" parent="1">
          <mxGeometry x="580" y="230" width="26" height="20" as="geometry" />
        </mxCell>
        <mxCell id="qDmLnBeWTp0_LzGQM5Zg-111" value="&lt;font style=&quot;font-size: 15px;&quot; face=&quot;Times New Roman&quot;&gt;h&lt;sub&gt;t&lt;/sub&gt;&lt;/font&gt;" style="text;html=1;strokeColor=none;fillColor=none;align=center;verticalAlign=middle;whiteSpace=wrap;rounded=0;" vertex="1" parent="1">
          <mxGeometry x="740" y="80" width="26" height="20" as="geometry" />
        </mxCell>
        <mxCell id="qDmLnBeWTp0_LzGQM5Zg-112" value="" style="endArrow=classic;html=1;rounded=0;" edge="1" parent="1">
          <mxGeometry width="50" height="50" relative="1" as="geometry">
            <mxPoint x="760" y="110" as="sourcePoint" />
            <mxPoint x="760" y="70" as="targetPoint" />
          </mxGeometry>
        </mxCell>
        <mxCell id="qDmLnBeWTp0_LzGQM5Zg-113" value="&lt;font style=&quot;font-size: 15px;&quot; face=&quot;Times New Roman&quot;&gt;h&lt;sub&gt;t&lt;/sub&gt;&lt;/font&gt;" style="text;html=1;strokeColor=none;fillColor=none;align=center;verticalAlign=middle;whiteSpace=wrap;rounded=0;" vertex="1" parent="1">
          <mxGeometry x="724" y="140" width="26" height="20" as="geometry" />
        </mxCell>
        <mxCell id="qDmLnBeWTp0_LzGQM5Zg-114" value="&lt;font style=&quot;font-size: 15px;&quot; face=&quot;Times New Roman&quot;&gt;z&lt;sub&gt;t&lt;/sub&gt;&lt;/font&gt;" style="text;html=1;strokeColor=none;fillColor=none;align=center;verticalAlign=middle;whiteSpace=wrap;rounded=0;" vertex="1" parent="1">
          <mxGeometry x="650" y="160" width="26" height="20" as="geometry" />
        </mxCell>
        <mxCell id="qDmLnBeWTp0_LzGQM5Zg-115" value="&lt;font style=&quot;font-size: 15px;&quot; face=&quot;Times New Roman&quot;&gt;h&lt;sub&gt;t&lt;/sub&gt;&lt;/font&gt;" style="text;html=1;strokeColor=none;fillColor=none;align=center;verticalAlign=middle;whiteSpace=wrap;rounded=0;" vertex="1" parent="1">
          <mxGeometry x="610" y="160" width="26" height="20" as="geometry" />
        </mxCell>
        <mxCell id="qDmLnBeWTp0_LzGQM5Zg-3" value="&lt;font face=&quot;Times New Roman&quot;&gt;&lt;span style=&quot;font-size: 15px;&quot;&gt;x&lt;/span&gt;&lt;/font&gt;" style="rounded=1;whiteSpace=wrap;html=1;fillColor=#f8cecc;strokeColor=#b85450;" vertex="1" parent="1">
          <mxGeometry x="862" y="100" width="20" height="20" as="geometry" />
        </mxCell>
        <mxCell id="qDmLnBeWTp0_LzGQM5Zg-149" value="" style="rounded=1;whiteSpace=wrap;html=1;fillColor=#dae8fc;strokeColor=#6c8ebf;" vertex="1" parent="1">
          <mxGeometry x="296" y="90" width="190" height="140" as="geometry" />
        </mxCell>
        <mxCell id="qDmLnBeWTp0_LzGQM5Zg-151" style="edgeStyle=orthogonalEdgeStyle;rounded=0;orthogonalLoop=1;jettySize=auto;html=1;exitX=0.5;exitY=0;exitDx=0;exitDy=0;" edge="1" parent="1" source="qDmLnBeWTp0_LzGQM5Zg-150">
          <mxGeometry relative="1" as="geometry">
            <mxPoint x="440" y="50" as="targetPoint" />
            <Array as="points">
              <mxPoint x="345" y="150" />
              <mxPoint x="345" y="110" />
              <mxPoint x="440" y="110" />
              <mxPoint x="440" y="50" />
            </Array>
          </mxGeometry>
        </mxCell>
        <mxCell id="qDmLnBeWTp0_LzGQM5Zg-150" value="&lt;font style=&quot;font-size: 15px;&quot; face=&quot;Times New Roman&quot;&gt;act&lt;/font&gt;" style="rounded=1;whiteSpace=wrap;html=1;fillColor=#fff2cc;strokeColor=#d6b656;" vertex="1" parent="1">
          <mxGeometry x="376" y="150" width="30" height="20" as="geometry" />
        </mxCell>
        <mxCell id="qDmLnBeWTp0_LzGQM5Zg-153" value="" style="endArrow=classic;html=1;rounded=0;" edge="1" parent="1">
          <mxGeometry width="50" height="50" relative="1" as="geometry">
            <mxPoint x="426" y="110" as="sourcePoint" />
            <mxPoint x="506" y="110" as="targetPoint" />
          </mxGeometry>
        </mxCell>
        <mxCell id="qDmLnBeWTp0_LzGQM5Zg-154" value="" style="endArrow=classic;html=1;rounded=0;entryX=0.5;entryY=1;entryDx=0;entryDy=0;" edge="1" parent="1" target="qDmLnBeWTp0_LzGQM5Zg-150">
          <mxGeometry width="50" height="50" relative="1" as="geometry">
            <mxPoint x="316" y="250" as="sourcePoint" />
            <mxPoint x="366" y="200" as="targetPoint" />
            <Array as="points">
              <mxPoint x="316" y="200" />
              <mxPoint x="391" y="200" />
            </Array>
          </mxGeometry>
        </mxCell>
        <mxCell id="qDmLnBeWTp0_LzGQM5Zg-155" value="" style="endArrow=none;html=1;rounded=0;" edge="1" parent="1">
          <mxGeometry width="50" height="50" relative="1" as="geometry">
            <mxPoint x="276" y="160" as="sourcePoint" />
            <mxPoint x="366" y="200" as="targetPoint" />
            <Array as="points">
              <mxPoint x="366" y="160" />
            </Array>
          </mxGeometry>
        </mxCell>
        <mxCell id="qDmLnBeWTp0_LzGQM5Zg-156" value="&lt;font style=&quot;font-size: 15px;&quot; face=&quot;Times New Roman&quot;&gt;h&lt;sub&gt;t-1&lt;/sub&gt;&lt;/font&gt;" style="text;html=1;strokeColor=none;fillColor=none;align=center;verticalAlign=middle;whiteSpace=wrap;rounded=0;" vertex="1" parent="1">
          <mxGeometry x="270" y="140" width="26" height="20" as="geometry" />
        </mxCell>
        <mxCell id="qDmLnBeWTp0_LzGQM5Zg-157" value="&lt;font style=&quot;font-size: 15px;&quot; face=&quot;Times New Roman&quot;&gt;x&lt;sub&gt;t&lt;/sub&gt;&lt;/font&gt;" style="text;html=1;strokeColor=none;fillColor=none;align=center;verticalAlign=middle;whiteSpace=wrap;rounded=0;" vertex="1" parent="1">
          <mxGeometry x="316" y="230" width="26" height="20" as="geometry" />
        </mxCell>
        <mxCell id="qDmLnBeWTp0_LzGQM5Zg-158" value="&lt;font style=&quot;&quot; face=&quot;Times New Roman&quot;&gt;&lt;span style=&quot;font-size: 15px;&quot;&gt;o&lt;sub&gt;t&lt;/sub&gt;&lt;/span&gt;&lt;/font&gt;" style="text;html=1;strokeColor=none;fillColor=none;align=center;verticalAlign=middle;whiteSpace=wrap;rounded=0;" vertex="1" parent="1">
          <mxGeometry x="436" y="70" width="26" height="20" as="geometry" />
        </mxCell>
        <mxCell id="qDmLnBeWTp0_LzGQM5Zg-159" value="&lt;font style=&quot;font-size: 15px;&quot; face=&quot;Times New Roman&quot;&gt;h&lt;sub&gt;t&lt;/sub&gt;&lt;/font&gt;" style="text;html=1;strokeColor=none;fillColor=none;align=center;verticalAlign=middle;whiteSpace=wrap;rounded=0;" vertex="1" parent="1">
          <mxGeometry x="486" y="90" width="26" height="20" as="geometry" />
        </mxCell>
      </root>
    </mxGraphModel>
  </diagram>
</mxfile>
